<?xml version="1.0" encoding="UTF-8" standalone="no"?>
<svg
   xmlns:dc="http://purl.org/dc/elements/1.1/"
   xmlns:cc="http://creativecommons.org/ns#"
   xmlns:rdf="http://www.w3.org/1999/02/22-rdf-syntax-ns#"
   xmlns:svg="http://www.w3.org/2000/svg"
   xmlns="http://www.w3.org/2000/svg"
   xmlns:sodipodi="http://sodipodi.sourceforge.net/DTD/sodipodi-0.dtd"
   xmlns:inkscape="http://www.inkscape.org/namespaces/inkscape"
   width="1792"
   height="1792"
   viewBox="0 0 1792 1792"
   id="svg8761"
   version="1.1"
   inkscape:version="0.91 r13725"
   sodipodi:docname="envelope.svg"
   class="social-icon">
  <metadata
     id="metadata8769">
    <rdf:RDF>
      <cc:Work
         rdf:about="">
        <dc:format>image/svg+xml</dc:format>
        <dc:type
           rdf:resource="http://purl.org/dc/dcmitype/StillImage" />
        <dc:title></dc:title>
      </cc:Work>
    </rdf:RDF>
  </metadata>
  <defs
     id="defs8767" />
  <sodipodi:namedview
     pagecolor="#ffffff"
     bordercolor="#666666"
     borderopacity="1"
     objecttolerance="10"
     gridtolerance="10"
     guidetolerance="10"
     inkscape:pageopacity="0"
     inkscape:pageshadow="2"
     inkscape:window-width="1568"
     inkscape:window-height="831"
     id="namedview8765"
     showgrid="false"
     inkscape:zoom="0.26339286"
     inkscape:cx="636.49731"
     inkscape:cy="1061.5642"
     inkscape:window-x="14"
     inkscape:window-y="53"
     inkscape:window-maximized="0"
     inkscape:current-layer="svg8761" />
  <path
     d="m 1792,839.08475 0,793.99995 q 0,66 -47,113 -47,47 -113,47 l -1472,0 q -66,0 -113,-47 -47,-47 -47,-113 L 0,839.08475 q 44,49 101,87 362,245.99995 497,344.99995 57,42 92.5,65.5 35.5,23.5 94.5,48 59,24.5 110,24.5 l 2,0 q 51,0 110,-24.5 59,-24.5 94.5,-48 35.5,-23.5 92.5,-65.5 170,-123 498,-344.99995 57,-39 100,-87 z m 0,-294 q 0,79 -49,151 -49,72 -122,123 -376,260.99995 -468,324.99995 -10,7 -42.5,30.5 -32.5,23.5 -54,38 -21.5,14.5 -52,32.5 -30.5,18 -57.5,27 -27,9 -50,9 l -2,0 q -23,0 -50,-9 -27,-9 -57.5,-27 -30.5,-18 -52,-32.5 -21.5,-14.5 -54,-38 -32.5,-23.5 -42.5,-30.5 -91,-64 -262,-182.49995 -171,-118.5 -205,-142.5 -62,-42 -117,-115.5 -55,-73.5 -55,-136.5 0,-78 41.5,-130 41.5,-52 118.5,-52 l 1472,0 q 65,0 112.5,47 47.5,47 47.5,113 z"
     id="path8763"
     inkscape:connector-curvature="0" />
</svg>
