<?xml version="1.0" encoding="UTF-8" standalone="no"?>
<svg
   xmlns:dc="http://purl.org/dc/elements/1.1/"
   xmlns:cc="http://creativecommons.org/ns#"
   xmlns:rdf="http://www.w3.org/1999/02/22-rdf-syntax-ns#"
   xmlns:svg="http://www.w3.org/2000/svg"
   xmlns="http://www.w3.org/2000/svg"
   xmlns:sodipodi="http://sodipodi.sourceforge.net/DTD/sodipodi-0.dtd"
   xmlns:inkscape="http://www.inkscape.org/namespaces/inkscape"
   width="1792"
   height="1792"
   viewBox="0 0 1792 1792"
   id="svg9345"
   version="1.1"
   inkscape:version="0.91 r13725"
   sodipodi:docname="github.svg"
   class="social-icon">
  <metadata
     id="metadata9353">
    <rdf:RDF>
      <cc:Work
         rdf:about="">
        <dc:format>image/svg+xml</dc:format>
        <dc:type
           rdf:resource="http://purl.org/dc/dcmitype/StillImage" />
        <dc:title></dc:title>
      </cc:Work>
    </rdf:RDF>
  </metadata>
  <defs
     id="defs9351" />
  <sodipodi:namedview
     pagecolor="#ffffff"
     bordercolor="#666666"
     borderopacity="1"
     objecttolerance="10"
     gridtolerance="10"
     guidetolerance="10"
     inkscape:pageopacity="0"
     inkscape:pageshadow="2"
     inkscape:window-width="1568"
     inkscape:window-height="829"
     id="namedview9349"
     showgrid="false"
     inkscape:zoom="0.26339286"
     inkscape:cx="809.24937"
     inkscape:cy="738.93237"
     inkscape:window-x="14"
     inkscape:window-y="53"
     inkscape:window-maximized="0"
     inkscape:current-layer="svg9345" />
  <path
     d="m 1789.2882,915.26602 q 0,291.34428 -170.0475,524.07168 -170.0478,232.7273 -439.3382,322.1038 -31.3399,5.8036 -45.849,-8.1251 -14.5093,-13.9287 -14.5093,-34.8221 l 0,-244.9151 q 0,-112.5912 -60.3582,-164.8243 66.1619,-6.9642 118.9753,-20.8932 52.8136,-13.9287 109.1092,-45.2687 56.2956,-31.3397 94.0196,-77.1888 37.7238,-45.849 61.5187,-121.8769 23.7951,-76.02825 23.7951,-174.69066 0,-140.44891 -91.6979,-239.11136 42.947,-105.62685 -9.286,-236.78988 -32.5004,-10.4466 -94.0196,12.7681 -61.5188,23.2147 -106.7874,51.07232 l -44.1079,27.85762 q -107.9485,-30.1791 -222.8612,-30.1791 -114.91273,0 -222.86106,30.1791 -18.57175,-12.76806 -49.33123,-31.33983 -30.75947,-18.57174 -96.92133,-44.68827 -66.16189,-26.11654 -99.82319,-15.66994 -51.07234,131.16303 -8.12514,236.78988 -91.69803,98.66245 -91.69803,239.11136 0,98.66241 23.79505,174.11016 23.79506,75.4477 60.93857,121.8771 37.14352,46.4294 93.43915,77.7691 56.29562,31.34 109.10906,45.2687 52.81342,13.929 118.9753,20.8932 -46.42939,41.7865 -56.876,119.5558 -24.37543,11.6073 -52.23306,17.4111 -27.85764,5.8036 -66.16187,5.8036 -38.30425,0 -76.02814,-24.9558 -37.72388,-24.9558 -64.42077,-72.5459 -22.05395,-37.1436 -56.29563,-60.3581 -34.24166,-23.2148 -57.45636,-27.8578 l -23.2147,-3.4821 q -24.37543,0 -33.6613,5.2232 -9.28588,5.2234 -5.80368,13.3485 3.48221,8.1252 10.44661,16.2503 6.96442,8.1251 15.08956,13.9287 l 8.12514,5.8037 q 25.53616,11.6075 50.49196,44.1079 24.95579,32.5006 36.56314,59.1975 l 11.60736,26.6969 q 15.08955,44.1081 51.07231,71.3853 35.98277,27.2772 77.76923,34.822 41.78645,7.5447 80.67106,8.125 38.88461,0.5805 64.42077,-4.0625 l 26.69689,-4.643 q 0,44.108 0.58038,103.3056 0.58036,59.1972 0.58036,62.6795 0,20.8934 -15.08956,34.8221 -15.08954,13.9287 -46.42938,8.1251 Q 346.49493,1672.065 176.4473,1439.3377 6.3996589,1206.6103 6.3996589,915.26602 6.3996589,672.67247 125.95535,467.8028 245.51101,262.93314 450.38067,143.37745 655.25036,23.821779 897.8439,23.821779 q 242.5936,0 447.4633,119.555671 204.8697,119.55569 324.4253,324.42535 119.5557,204.86967 119.5557,447.46322 z"
     id="path9347"
     inkscape:connector-curvature="0" />
</svg>
